HIERARCHY
ROOT Hip
{
    OFFSET 0.0 0.0 0.0
    CHANNELS 6 Xposition Yposition Zposition Zrotation Xrotation Yrotation
    JOINT RightHip
    {
        OFFSET -13.521650314331055 0.0 0.0
        CHANNELS 3 Zrotation Xrotation Yrotation
        JOINT RightKnee
        {
            OFFSET 0.0 0.0 -48.099876403808594
            CHANNELS 3 Zrotation Xrotation Yrotation
            JOINT RightAnkle
            {
                OFFSET 0.0 0.0 -45.817779541015625
                CHANNELS 3 Zrotation Xrotation Yrotation
                End Site
                {
                    OFFSET 0.0 -18.327112197875977 0.0
                }
            }
        }
    }
    JOINT LeftHip
    {
        OFFSET 13.521650314331055 0.0 0.0
        CHANNELS 3 Zrotation Xrotation Yrotation
        JOINT LeftKnee
        {
            OFFSET 0.0 0.0 -48.099876403808594
            CHANNELS 3 Zrotation Xrotation Yrotation
            JOINT LeftAnkle
            {
                OFFSET 0.0 0.0 -45.817779541015625
                CHANNELS 3 Zrotation Xrotation Yrotation
                End Site
                {
                    OFFSET 0.0 -18.327112197875977 0.0
                }
            }
        }
    }
    JOINT Spine
    {
        OFFSET 0.0 0.0 24.278772354125977
        CHANNELS 3 Zrotation Xrotation Yrotation
        JOINT Thorax
        {
            OFFSET 0.0 0.0 24.261747360229492
            CHANNELS 3 Zrotation Xrotation Yrotation
            JOINT Neck
            {
                OFFSET 0.0 0.0 11.935837745666504
                CHANNELS 3 Zrotation Xrotation Yrotation
                End Site
                {
                    OFFSET 0.0 0.0 4.7743353843688965
                }
            }
            JOINT LeftShoulder
            {
                OFFSET 15.132634162902832 0.0 0.0
                CHANNELS 3 Zrotation Xrotation Yrotation
                JOINT LeftElbow
                {
                    OFFSET 27.791358947753906 0.0 0.0
                    CHANNELS 3 Zrotation Xrotation Yrotation
                    JOINT LeftWrist
                    {
                        OFFSET 23.395803451538086 0.0 0.0
                        CHANNELS 3 Zrotation Xrotation Yrotation
                        End Site
                        {
                            OFFSET 9.358321189880371 0.0 0.0
                        }
                    }
                }
            }
            JOINT RightShoulder
            {
                OFFSET -15.132634162902832 0.0 0.0
                CHANNELS 3 Zrotation Xrotation Yrotation
                JOINT RightElbow
                {
                    OFFSET -27.791358947753906 0.0 0.0
                    CHANNELS 3 Zrotation Xrotation Yrotation
                    JOINT RightWrist
                    {
                        OFFSET -23.395803451538086 0.0 0.0
                        CHANNELS 3 Zrotation Xrotation Yrotation
                        End Site
                        {
                            OFFSET -9.358321189880371 0.0 0.0
                        }
                    }
                }
            }
        }
    }
}
MOTION
Frames: 21
Frame Time: 0.03333333333333333
1.1170605140997014 95.55335530641699 10.508220679912558 -65.75966294 -43.84828274 -96.5614775 8.17658336 -39.8833779 15.05932451 0.7635845 19.51574698 9.23766114 0.0 0.0 0.0 3.22684222 -18.29821653 6.86524046 -1.83565443 27.90101045 30.57493522 0.0 0.0 0.0 -2.79651747 16.09913538 -2.39461845 -6.55148015 2e-07 -3.9e-07 -7.44748305 -3.26167061 8.55209224 -28.90150535 -2.95567883 62.17981714 -40.81602988 4.1e-07 -5.4e-07 0.0 0.0 0.0 -16.67702427 -44.1820306 -34.38309749 50.78456989 -3.19e-06 3.76e-06 0.0 0.0 0.0
1.920148810644777 95.51585988327494 16.966473621079714 -65.97699029 -44.06361146 -96.72570073 8.03350024 -39.11637743 15.72774491 0.98657409 19.21992422 7.90488697 0.0 0.0 0.0 3.16015609 -17.78718721 6.81852687 -1.99181141 28.82469626 30.7687658 0.0 0.0 0.0 -2.68098726 15.35571919 -2.43555434 -6.32639444 2.1e-07 -1.23e-06 -7.72693988 -2.61035268 9.09071752 -28.96341523 -1.7523582 61.97980089 -43.53918362 1.2e-07 -2.3e-07 0.0 0.0 0.0 -15.9404474 -43.80221508 -32.19064716 50.35956464 -3.19e-06 3.24e-06 0.0 0.0 0.0
2.976183501985281 95.47092067763187 24.760459908050912 -66.245976 -44.2741818 -96.91500862 7.88590601 -38.23628606 16.55369692 1.27223672 19.02638106 6.13957244 0.0 0.0 0.0 3.08278934 -17.16596388 6.75389332 -2.18605497 29.82886994 30.91678741 0.0 0.0 0.0 -2.53348515 14.38481549 -2.51346679 -5.98894258 -2e-08 -1.63e-06 -8.03362264 -1.77518989 9.7352629 -28.7482353 -0.42181698 61.71330482 -47.26356629 -7e-08 3e-08 0.0 0.0 0.0 -15.0288219 -43.34741049 -29.46384112 49.86780556 -2.93e-06 2.55e-06 0.0 0.0 0.0
4.139655894690739 95.42362627430064 33.23434114070419 -66.54546141 -44.41488086 -97.08171215 7.72950294 -37.35330761 17.39092107 1.60120435 19.08283186 4.07025652 0.0 0.0 0.0 2.9947139 -16.5105753 6.62954052 -2.40575206 30.72997767 30.98395425 0.0 0.0 0.0 -2.35126003 13.23001756 -2.66695781 -5.52947644 -1.1e-07 -1.51e-06 -8.28054022 -0.83950817 10.42544508 -28.05975078 0.7945205 61.38184949 -51.97612947 -1.5e-07 3.5e-07 0.0 0.0 0.0 -13.94918374 -42.84109682 -26.38151715 49.36818581 -2.34e-06 1.84e-06 0.0 0.0 0.0
5.217754330577154 95.3778507537843 41.88849070222393 -66.85098047 -44.4760838 -97.17427324 7.53535828 -36.51275114 18.13385123 1.97711431 19.47060332 1.83397657 0.0 0.0 0.0 2.89086028 -15.88060767 6.42305815 -2.61444084 31.30296151 30.88976954 0.0 0.0 0.0 -2.1339881 11.95055783 -2.92428078 -4.95098324 -9e-08 -1.37e-06 -8.27233288 0.07535215 11.10352062 -26.73019096 1.7101283 60.92913961 -57.71591862 -1e-07 7.8e-07 0.0 0.0 0.0 -12.69850111 -42.32106624 -23.0443416 48.87941621 -1.81e-06 1.35e-06 0.0 0.0 0.0
6.1937178578238345 95.33250248666408 50.26196032887784 -67.13068597 -44.44771782 -97.15719902 7.29162787 -35.74853486 18.74211959 2.41184956 20.20387545 -0.43641083 0.0 0.0 0.0 2.77608386 -15.34420538 6.16347978 -2.76051583 31.40100997 30.5036746 0.0 0.0 0.0 -1.89781775 10.64815053 -3.28540898 -4.28873049 -2.1e-07 -8.6e-07 -7.92161366 0.85350182 11.70519788 -24.60931895 2.15116324 60.2387647 -64.52460966 1.7e-07 1e-06 0.0 0.0 0.0 -11.2623213 -41.84929331 -19.5545265 48.40058434 -1.25e-06 1.02e-06 0.0 0.0 0.0
7.120635103222329 95.28779113458161 58.0882624530643 -67.38591908 -44.29465045 -97.04712944 6.99298753 -35.08347016 19.23881939 2.93441349 21.28588996 -2.7383292 0.0 0.0 0.0 2.65123465 -14.93088387 5.90752678 -2.78528399 30.96924972 29.69796912 0.0 0.0 0.0 -1.65928706 9.40785081 -3.71665089 -3.58793355 -3.3e-07 -4e-07 -7.22332905 1.44393711 12.12729017 -21.66130832 2.11516608 59.21504773 -72.27163243 4.5e-07 9.9e-07 0.0 0.0 0.0 -9.64091922 -41.50325195 -16.05274975 47.99065201 -9.4e-07 8.3e-07 0.0 0.0 0.0
7.956910448763176 95.24516283447127 65.09853657221835 -67.57583359 -44.02711159 -96.84373099 6.64907819 -34.53262727 19.67822913 3.56582034 22.64260296 -5.07266152 0.0 0.0 0.0 2.52348425 -14.67247241 5.7529204 -2.64128932 30.17236481 28.31705344 0.0 0.0 0.0 -1.42882914 8.25867159 -4.18341279 -2.8647242 -4.5e-07 -3.7e-07 -6.16619082 1.79102976 12.35320843 -17.98328478 1.52756967 57.8530283 -80.46582724 7.5e-07 9.4e-07 0.0 0.0 0.0 -7.97150503 -41.46420207 -12.72594628 47.67262925 -7.7e-07 8.7e-07 0.0 0.0 0.0
8.723471312772732 95.20395376190345 71.24425551196545 -67.60941772 -43.72167997 -96.52671715 6.26622367 -34.12064422 20.12321708 4.3237806 24.13852473 -7.44253924 -0.0 -0.0 -0.0 2.40180651 -14.62489121 5.80661381 -2.28078354 29.26199531 26.22028791 -0.0 -0.0 -0.0 -1.20591807 7.17863486 -4.64656055 -2.12123765 -3.4e-07 -5.3e-07 -4.66240252 1.8990308 12.49227971 -13.75043271 0.31513497 56.11324166 -88.55532863 9.7e-07 6.5e-07 -0.0 -0.0 -0.0 -6.34753216 -41.92970557 -9.62325266 47.4050912 -3.4e-07 8.2e-07 -0.0 -0.0 -0.0
9.454858703553274 95.16045047120186 76.62169145094977 -67.47263152 -43.42401101 -96.13561484 5.86596848 -33.8658288 20.6112 5.19973426 25.64764998 -9.83083595 -0.0 -0.0 -0.0 2.28776813 -14.77242465 6.15557717 -1.67937592 28.49473655 23.36610992 -0.0 -0.0 -0.0 -0.99415324 6.15184616 -5.03064117 -1.35514689 -1.7e-07 -5.9e-07 -2.69845579 1.85622945 12.57661339 -9.01892916 -1.58476546 53.97543973 -96.04627556 1.13e-06 6.4e-07 -0.0 -0.0 -0.0 -4.72575835 -42.85870776 -6.72526594 47.09097887 5.3e-07 6.9e-07 -0.0 -0.0 -0.0
10.232179162700413 95.11590704493476 81.10408324628605 -67.18514187 -43.15524782 -95.70503858 5.45128996 -33.81222461 21.09566795 6.17145953 27.12596633 -12.16298594 -0.0 -0.0 -0.0 2.17329614 -15.09569698 6.8081189 -0.82565067 28.1305586 19.83319317 -0.0 -0.0 -0.0 -0.7969654 5.19444293 -5.28635184 -0.56745694 2e-07 -7.6e-07 -0.5061386 1.69003554 12.55008747 -4.07995484 -4.01641542 51.51164299 -102.24933383 1.46e-06 5.6e-07 -0.0 -0.0 -0.0 -3.10041194 -44.1704269 -4.05135512 46.71079688 9e-07 6.1e-07 -0.0 -0.0 -0.0
11.115800264791442 95.07478570939712 84.59078552651306 -66.83821549 -42.88768144 -95.28869016 5.02860361 -33.97129517 21.50767071 7.19767062 28.57533025 -14.36124729 0.0 0.0 0.0 2.0556857 -15.57913857 7.72706333 0.27485059 28.46385671 15.73103114 0.0 0.0 0.0 -0.62420424 4.36129264 -5.45215553 0.20372339 3.7e-07 -6.7e-07 1.55368647 1.39895781 12.42705321 0.66182891 -6.65752134 48.91437466 -106.48616261 1.3e-06 4.3e-07 0.0 0.0 0.0 -1.49248455 -45.72316441 -1.68245751 46.41172656 1.44e-06 4.3e-07 0.0 0.0 0.0
12.073810182648899 95.04078114363408 86.99960731408389 -66.48055207 -42.64286279 -94.88511085 4.61955152 -34.30901496 21.80093159 8.19398957 29.9117091 -16.3676091 0.0 0.0 0.0 1.94879643 -16.24831835 8.82022772 1.5977885 29.72728308 11.23771146 0.0 0.0 0.0 -0.48127529 3.6716126 -5.62022432 0.90132987 7.1e-07 -4.5e-07 3.35287426 0.90743676 12.26768875 4.81854282 -9.00289311 46.35891134 -108.31703014 1.43e-06 2.8e-07 0.0 0.0 0.0 0.051519 -47.36648552 0.35111503 46.24573311 1.47e-06 1.6e-07 0.0 0.0 0.0
13.013021154400075 95.01122551216167 88.52181030195376 -66.13947471 -42.39134482 -94.48494859 4.25974 -34.75860887 21.9869906 9.07434315 31.04086197 -18.16520138 0.0 0.0 0.0 1.86958121 -17.09158225 9.9897692 3.11579387 31.98181885 6.52055432 0.0 0.0 0.0 -0.37107587 3.13107467 -5.81637644 1.53488842 9.9e-07 -5.9e-07 4.92064472 0.25136987 12.20438591 8.00653076 -10.57644597 43.89933788 -107.73608346 1.51e-06 2.4e-07 0.0 0.0 0.0 1.54521613 -48.95837115 2.04203026 46.15158331 1.38e-06 -6e-08 0.0 0.0 0.0
13.875531399937874 94.98671220623392 89.31156599019906 -65.81656017 -42.09037199 -94.08588496 3.982248 -35.30883469 22.11533229 9.8142246 31.96555059 -19.79982828 0.0 0.0 0.0 1.8264853 -18.05694551 11.15344655 4.80157658 35.13438635 1.72796009 0.0 0.0 0.0 -0.2934124 2.74520874 -6.0140718 2.1436702 1.23e-06 -7.2e-07 6.3726949 -0.56116763 12.36009572 10.08379636 -11.14553748 41.63667396 -104.6586614 1.53e-06 4.1e-07 0.0 0.0 0.0 2.8910129 -50.4100321 3.27640411 46.09606841 1.74e-06 -1.2e-07 0.0 0.0 0.0
14.55218096493183 94.9677478749738 89.5108770414105 -65.53433954 -41.71320958 -93.66936032 3.78102849 -35.93291565 22.1679415 10.40273086 32.72739313 -21.28774949 0.0 0.0 0.0 1.80999884 -19.0566081 12.18600704 6.58089102 38.91039764 -2.87643549 0.0 0.0 0.0 -0.24542561 2.53126448 -6.2130317 2.745676 1.27e-06 -7.7e-07 7.8374298 -1.5334246 12.73468398 11.06079428 -10.63231805 39.80690349 -99.01552663 1.89e-06 5e-07 0.0 0.0 0.0 3.94096555 -51.6304793 3.90444116 46.08561951 1.45e-06 -2.8e-07 0.0 0.0 0.0
14.954981689238828 94.95186064691163 89.38673175417783 -65.28083741 -41.28378598 -93.25951885 3.66684775 -36.60262199 22.21541423 10.85188237 33.31379434 -22.68890253 0.0 0.0 0.0 1.82316922 -20.03459728 13.05445409 8.32792649 42.77571787 -7.08260083 0.0 0.0 0.0 -0.22170255 2.46666157 -6.36464535 3.2881512 9.3e-07 -8.9e-07 9.31027852 -2.61140318 13.35352482 10.96668501 -8.91251038 38.60552935 -90.80481428 2.45e-06 4.6e-07 0.0 0.0 0.0 4.51731533 -52.50817429 3.78059419 46.19983707 1.02e-06 -3.3e-07 0.0 0.0 0.0
15.091544032421847 94.93939970987478 89.01663204028857 -65.02648428 -40.90673924 -92.89096877 3.64165662 -37.30388122 22.38252163 11.22154499 33.69176822 -24.10268922 0.0 0.0 0.0 1.86907297 -20.99021984 13.79073564 9.88518936 46.09904953 -10.68630524 0.0 0.0 0.0 -0.21694687 2.53445033 -6.38397416 3.70174308 5.7e-07 -8.5e-07 10.7842735 -3.80621114 14.16079303 9.80080566 -5.91964857 38.21383632 -80.03830619 2.51e-06 1.06e-06 0.0 0.0 0.0 4.47684397 -53.0936136 2.82193599 46.40183042 7.2e-07 -3.1e-07 0.0 0.0 0.0
14.695006968950144 94.92732623192657 88.31380376133127 -64.76824058 -40.66344796 -92.55523263 3.64811952 -38.0392974 22.67625103 11.60567792 33.92466324 -25.58180708 -0.0 -0.0 -0.0 1.92136956 -21.9525525 14.32765707 11.00888769 48.26978669 -13.44670271 -0.0 -0.0 -0.0 -0.22209708 2.71373678 -6.21431221 3.94525446 3.7e-07 -8.8e-07 12.00163114 -5.04699621 14.96256734 7.61097253 -2.03971536 38.61928462 -68.17692062 2.07e-06 1.82e-06 -0.0 -0.0 -0.0 3.68836674 -53.23482781 0.98285461 46.62450338 2.1e-07 -1.8e-07 -0.0 -0.0 -0.0
13.565265140333 94.91397902190988 87.11849926000397 -64.51220053 -40.59504117 -92.17395688 3.57744134 -38.83147533 22.96158859 12.07925393 34.1220144 -27.16653127 0.0 0.0 0.0 1.92383114 -22.95484444 14.52128282 11.54672266 49.05698312 -15.17334638 0.0 0.0 0.0 -0.22561829 3.00084611 -5.88111515 4.02989961 4e-07 -9e-07 12.74913325 -6.41431155 15.48713119 4.54997829 2.21774131 39.73317544 -57.08310722 1.75e-06 2.41e-06 0.0 0.0 0.0 2.0708679 -52.93933266 -1.77876459 46.82547368 -2.9e-07 -1.3e-07 0.0 0.0 0.0
11.75697829448915 94.9021288858607 85.32646148674515 -64.30996253 -40.69790401 -91.70893595 3.35705066 -39.67363797 23.13720515 12.70469974 34.40731676 -28.88661885 0.0 0.0 0.0 1.83780235 -24.02204899 14.24872675 11.41206754 48.46670768 -15.6846964 0.0 0.0 0.0 -0.22330404 3.45190935 -5.44018746 4.04945746 4.3e-07 -9.5e-07 12.9569445 -7.9813395 15.50782576 0.95750393 6.0408904 41.43740422 -48.32271618 1.67e-06 2.51e-06 0.0 0.0 0.0 -0.28831169 -52.23117967 -5.31191952 46.95640367 -6.6e-07 -1.3e-07 0.0 0.0 0.0
